<?xml version="1.0" encoding="UTF-8"?>
<svg version="1.1" xmlns="http://www.w3.org/2000/svg" width="1024" height="1024">
<path d="M0 0 C2.66595484 2.44786544 5.22295241 4.97182484 7.76953125 7.54296875 C8.92001953 8.62384766 8.92001953 8.62384766 10.09375 9.7265625 C29.00231555 27.76002089 41.11217045 52.22770779 46.76953125 77.54296875 C47.09050781 78.97769531 47.09050781 78.97769531 47.41796875 80.44140625 C54.18577115 115.45742734 46.1306692 151.62957289 26.90234375 181.4375 C15.7403922 197.2541243 2.26354486 212.20581146 -14.23046875 222.54296875 C-14.83342773 222.92694824 -15.43638672 223.31092773 -16.05761719 223.70654297 C-47.78971607 243.76857243 -83.32881361 248.15480028 -119.98828125 241.90673828 C-123.39184306 241.35454892 -126.80647371 240.94740853 -130.23046875 240.54296875 C-130.23046875 239.88296875 -130.23046875 239.22296875 -130.23046875 238.54296875 C-131.38546875 238.35734375 -132.54046875 238.17171875 -133.73046875 237.98046875 C-151.47881141 233.97457323 -167.65863403 223.25595482 -181.23046875 211.54296875 C-182.09027344 210.86878906 -182.95007813 210.19460938 -183.8359375 209.5 C-187.43568734 206.55795323 -190.23848428 203.08580307 -193.23046875 199.54296875 C-194.41382813 198.19138672 -194.41382813 198.19138672 -195.62109375 196.8125 C-220.68429592 167.71304595 -229.89941655 132.31263324 -228.23046875 94.54296875 C-226.99144468 78.72670172 -222.79622384 63.76656194 -217.04296875 49.04296875 C-216.79313232 48.40125732 -216.5432959 47.7595459 -216.28588867 47.09838867 C-214.47919874 42.66733374 -214.47919874 42.66733374 -212.23046875 41.54296875 C-211.97136719 40.69992187 -211.71226562 39.856875 -211.4453125 38.98828125 C-209.88787842 34.57137817 -207.51188624 31.20112626 -204.79296875 27.41796875 C-204.2609082 26.67168213 -203.72884766 25.92539551 -203.18066406 25.15649414 C-198.32326925 18.46068036 -193.00934841 12.45686896 -187.23046875 6.54296875 C-186.56789063 5.83011719 -185.9053125 5.11726563 -185.22265625 4.3828125 C-136.92597195 -46.43984901 -51.20291431 -45.0501013 0 0 Z M-106.39794922 -10.30664062 C-109.44956581 -7.22656505 -111.86274973 -3.78565259 -114.29296875 -0.20703125 C-115.07655762 0.92883423 -115.07655762 0.92883423 -115.87597656 2.08764648 C-125.55523936 16.2176147 -134.80130776 31.84285354 -139.23046875 48.54296875 C-138.90046875 49.20296875 -138.57046875 49.86296875 -138.23046875 50.54296875 C-135.84464798 51.10963312 -135.84464798 51.10963312 -132.9375 51.39453125 C-131.27750977 51.58789062 -131.27750977 51.58789062 -129.58398438 51.78515625 C-127.83118164 51.97464844 -127.83118164 51.97464844 -126.04296875 52.16796875 C-124.36557617 52.3690625 -124.36557617 52.3690625 -122.65429688 52.57421875 C-114.36300337 53.50657304 -106.73739458 53.54296875 -98.23046875 53.54296875 C-98.23046875 31.10296875 -98.23046875 8.66296875 -98.23046875 -14.45703125 C-102.2719483 -14.45703125 -103.47741118 -12.92415463 -106.39794922 -10.30664062 Z M-82.23046875 -14.45703125 C-82.23046875 7.98296875 -82.23046875 30.42296875 -82.23046875 53.54296875 C-72.58988578 53.59628309 -72.58988578 53.59628309 -63.15234375 52.88671875 C-61.97285156 52.75136719 -60.79335938 52.61601562 -59.578125 52.4765625 C-58.39089844 52.33347656 -57.20367188 52.19039063 -55.98046875 52.04296875 C-54.74683594 51.89988281 -53.51320313 51.75679688 -52.2421875 51.609375 C-49.23751161 51.25999408 -46.23371053 50.90443447 -43.23046875 50.54296875 C-42.0909988 45.83192089 -42.79839557 42.79036895 -44.54296875 38.35546875 C-44.81222168 37.6605835 -45.08147461 36.96569824 -45.35888672 36.24975586 C-52.39390113 18.79833121 -63.83037505 -2.9805283 -79.23046875 -14.45703125 C-80.22046875 -14.45703125 -81.21046875 -14.45703125 -82.23046875 -14.45703125 Z M-159.23046875 4.54296875 C-159.81473633 4.97432129 -160.39900391 5.40567383 -161.00097656 5.85009766 C-162.94393713 7.29474946 -164.87143011 8.75745967 -166.79296875 10.23046875 C-167.70647095 10.9263208 -167.70647095 10.9263208 -168.63842773 11.63623047 C-171.7226915 14.06636254 -173.56838655 16.02732024 -175.23046875 19.54296875 C-176.12765625 19.98382813 -176.12765625 19.98382813 -177.04296875 20.43359375 C-180.19059683 22.02989085 -182.05784788 24.59365191 -184.23046875 27.29296875 C-184.65585937 27.80601562 -185.08125 28.3190625 -185.51953125 28.84765625 C-188.33209079 32.28139459 -190.82427684 35.82228311 -193.23046875 39.54296875 C-184.72762686 41.96499038 -176.21064964 44.04930604 -167.54296875 45.79296875 C-166.68219727 45.96795898 -165.82142578 46.14294922 -164.93457031 46.32324219 C-164.12084961 46.4834082 -163.30712891 46.64357422 -162.46875 46.80859375 C-161.74727783 46.95071289 -161.02580566 47.09283203 -160.2824707 47.23925781 C-157.91671228 47.64057686 -157.91671228 47.64057686 -154.23046875 47.54296875 C-154.03001953 46.9603125 -153.82957031 46.37765625 -153.62304688 45.77734375 C-147.29635528 27.52892717 -139.7501821 11.40934543 -129.28662109 -4.80224609 C-127.88825209 -6.99321814 -126.55252943 -9.21936867 -125.23046875 -11.45703125 C-135.85613569 -11.45703125 -150.97147823 -1.59613251 -159.23046875 4.54296875 Z M-56.23046875 -11.45703125 C-55.90175781 -10.96976562 -55.57304688 -10.4825 -55.234375 -9.98046875 C-54.19215633 -8.42702629 -53.15652025 -6.86916069 -52.125 -5.30859375 C-50.82677551 -3.35456514 -49.51068795 -1.41232083 -48.1796875 0.51953125 C-38.4535761 14.99640754 -31.11614665 30.80309341 -26.23046875 47.54296875 C-17.84331988 46.98619129 -9.79888257 45.29888345 -1.60546875 43.48046875 C-0.30219581 43.19544876 1.00118906 42.91094007 2.3046875 42.62695312 C5.46076843 41.937291 8.61563091 41.24252287 11.76953125 40.54296875 C11.76953125 32.59300513 2.09896047 24.48559916 -3.23046875 19.04296875 C-15.41491585 6.9257968 -38.1423643 -11.45703125 -56.23046875 -11.45703125 Z M-201.23046875 54.54296875 C-204.74946609 62.49590275 -207.66742802 70.34713764 -209.54296875 78.85546875 C-209.7018457 79.5707373 -209.86072266 80.28600586 -210.02441406 81.02294922 C-211.17885269 86.56552322 -211.66000779 91.8383592 -212.23046875 97.54296875 C-196.06046875 97.54296875 -179.89046875 97.54296875 -163.23046875 97.54296875 C-162.49654417 94.60727044 -162.0151192 92.09930993 -161.73046875 89.12890625 C-161.64796875 88.28457031 -161.56546875 87.44023437 -161.48046875 86.5703125 C-161.39796875 85.69503906 -161.31546875 84.81976563 -161.23046875 83.91796875 C-161.06380208 82.19661458 -160.89713542 80.47526042 -160.73046875 78.75390625 C-160.64925781 77.9040918 -160.56804687 77.05427734 -160.484375 76.17871094 C-160.07851651 71.96558764 -159.65464597 67.75428139 -159.23046875 63.54296875 C-164.82388939 61.49520798 -170.54402907 60.28599978 -176.35546875 59.04296875 C-177.37850098 58.82229736 -178.4015332 58.60162598 -179.45556641 58.37426758 C-190.24797275 55.7163829 -190.24797275 55.7163829 -201.23046875 54.54296875 Z M7.95703125 56.79296875 C-0.08635352 58.81556197 -8.10398496 60.54119042 -16.2734375 61.96484375 C-19.14706826 62.38989975 -19.14706826 62.38989975 -21.23046875 63.54296875 C-20.19732052 74.90759927 -18.70642223 86.22732544 -17.23046875 97.54296875 C-1.39046875 97.54296875 14.44953125 97.54296875 30.76953125 97.54296875 C30.76953125 96.88296875 30.76953125 96.22296875 30.76953125 95.54296875 C31.42953125 96.20296875 32.08953125 96.86296875 32.76953125 97.54296875 C32.5247754 85.14942235 30.29586863 65.79265189 22.76953125 55.54296875 C17.94133816 53.42418887 12.80356482 55.5226324 7.95703125 56.79296875 Z M-144.23046875 65.54296875 C-144.74592436 68.24911071 -145.24272222 70.95680108 -145.73046875 73.66796875 C-145.87355469 74.40917969 -146.01664062 75.15039062 -146.1640625 75.9140625 C-147.4843331 83.39559588 -147.23046875 89.59758756 -147.23046875 97.54296875 C-131.06046875 97.54296875 -114.89046875 97.54296875 -98.23046875 97.54296875 C-98.23046875 88.30296875 -98.23046875 79.06296875 -98.23046875 69.54296875 C-104.29928225 68.97202619 -110.36816202 68.40192059 -116.43725586 67.83398438 C-118.50240684 67.64047286 -120.56751137 67.44646501 -122.63256836 67.25195312 C-125.59867512 66.97265602 -128.56494364 66.69513694 -131.53125 66.41796875 C-132.45633865 66.33047363 -133.38142731 66.24297852 -134.33454895 66.15283203 C-135.62554756 66.03270752 -135.62554756 66.03270752 -136.94262695 65.91015625 C-137.6998555 65.83909668 -138.45708405 65.76803711 -139.23725891 65.69482422 C-140.89762003 65.56832729 -142.56529593 65.54296875 -144.23046875 65.54296875 Z M-44.42651367 65.91015625 C-45.26715866 65.99023926 -46.10780365 66.07032227 -46.97392273 66.15283203 C-47.8771376 66.24032715 -48.78035248 66.32782227 -49.7109375 66.41796875 C-51.10292107 66.55114502 -51.10292107 66.55114502 -52.52302551 66.68701172 C-55.48813569 66.97100298 -58.45305233 67.25696241 -61.41796875 67.54296875 C-63.42772194 67.7358067 -65.43748742 67.92851662 -67.44726562 68.12109375 C-72.37516866 68.59332568 -77.30280518 69.06821751 -82.23046875 69.54296875 C-82.23046875 78.78296875 -82.23046875 88.02296875 -82.23046875 97.54296875 C-65.73046875 97.54296875 -49.23046875 97.54296875 -32.23046875 97.54296875 C-32.98348274 86.04108127 -32.98348274 86.04108127 -34.73046875 74.79296875 C-34.86066406 74.10976563 -34.99085938 73.4265625 -35.125 72.72265625 C-35.8438537 69.02572627 -35.8438537 69.02572627 -37.23046875 65.54296875 C-39.68135618 65.54296875 -41.99280171 65.67628603 -44.42651367 65.91015625 Z M-212.23046875 113.54296875 C-211.57323361 121.4297904 -210.84887988 128.47497448 -208.98046875 136.04296875 C-208.76084473 136.94499023 -208.5412207 137.84701172 -208.31494141 138.77636719 C-205.7462037 149.03808342 -205.7462037 149.03808342 -201.23046875 158.54296875 C-197.38902235 159.82345088 -195.61097256 159.0418746 -191.7265625 157.9609375 C-191.08864273 157.78669754 -190.45072296 157.61245758 -189.79347229 157.43293762 C-187.74936043 156.87336253 -185.70859929 156.3025969 -183.66796875 155.73046875 C-175.24010159 153.39068935 -166.85328991 151.06479365 -158.23046875 149.54296875 C-158.42382812 148.53621094 -158.6171875 147.52945313 -158.81640625 146.4921875 C-159.07981057 145.07168564 -159.34280827 143.65110834 -159.60546875 142.23046875 C-159.73179687 141.57884766 -159.858125 140.92722656 -159.98828125 140.25585938 C-161.61086423 131.37221754 -162.27661796 122.60455129 -163.23046875 113.54296875 C-179.40046875 113.54296875 -195.57046875 113.54296875 -212.23046875 113.54296875 Z M-146.23046875 113.54296875 C-148.80920389 121.27917417 -147.20558475 129.85368632 -145.85546875 137.73046875 C-145.66645996 138.86282959 -145.66645996 138.86282959 -145.47363281 140.01806641 C-145.13236023 141.87464031 -144.68978537 143.71202312 -144.23046875 145.54296875 C-140.86739402 147.22450611 -137.20167251 145.84278604 -133.60546875 145.23046875 C-121.85157803 143.33218269 -110.10151647 142.4401991 -98.23046875 141.54296875 C-98.23046875 132.30296875 -98.23046875 123.06296875 -98.23046875 113.54296875 C-114.07046875 113.54296875 -129.91046875 113.54296875 -146.23046875 113.54296875 Z M-82.23046875 113.54296875 C-82.23046875 122.78296875 -82.23046875 132.02296875 -82.23046875 141.54296875 C-79.13478516 141.83300781 -79.13478516 141.83300781 -75.9765625 142.12890625 C-73.92091384 142.3235322 -71.86536119 142.5191446 -69.80981445 142.71484375 C-68.40886958 142.84770436 -67.00783092 142.97958057 -65.60668945 143.11035156 C-55.77794732 144.02859553 -46.00647178 145.16745961 -36.23046875 146.54296875 C-35.73889298 144.04489819 -35.26241442 141.54522332 -34.79296875 139.04296875 C-34.65826172 138.36621094 -34.52355469 137.68945312 -34.38476562 136.9921875 C-32.92701979 129.0990271 -32.74390355 121.75792559 -32.23046875 113.54296875 C-48.73046875 113.54296875 -65.23046875 113.54296875 -82.23046875 113.54296875 Z M-17.23046875 113.54296875 C-17.70484375 117.62671875 -18.17921875 121.71046875 -18.66796875 125.91796875 C-18.81548584 127.18431152 -18.96300293 128.4506543 -19.11499023 129.75537109 C-19.87792187 136.34615259 -20.59719474 142.93842103 -21.23046875 149.54296875 C-16.69583234 150.64680733 -12.1609102 151.74946197 -7.62573242 152.85107422 C-6.08659301 153.22510684 -4.54752883 153.59944915 -3.00854492 153.97412109 C4.90250463 155.89988778 12.81063379 157.82261549 20.76953125 159.54296875 C27.59859858 144.94613067 32.76953125 129.77040539 32.76953125 113.54296875 C16.26953125 113.54296875 -0.23046875 113.54296875 -17.23046875 113.54296875 Z M-117.828125 158.12890625 C-118.89611328 158.25523437 -119.96410156 158.3815625 -121.06445312 158.51171875 C-122.12986328 158.64578125 -123.19527344 158.77984375 -124.29296875 158.91796875 C-125.39318359 159.04429687 -126.49339844 159.170625 -127.62695312 159.30078125 C-134.19149619 160.03905781 -134.19149619 160.03905781 -140.23046875 162.54296875 C-131.63664318 185.19941798 -120.14911735 210.55928156 -100.23046875 225.54296875 C-97.94672483 223.68770297 -97.94672483 223.68770297 -97.98995972 220.79684448 C-97.99440094 219.6288028 -97.99884216 218.46076111 -98.00341797 217.25732422 C-98.00312592 216.61329651 -98.00283386 215.9692688 -98.00253296 215.3057251 C-98.00392801 213.17373248 -98.01949701 211.04208793 -98.03515625 208.91015625 C-98.03888577 207.43328034 -98.04173303 205.95640197 -98.04373169 204.47952271 C-98.05137301 200.58979477 -98.07102567 196.70021587 -98.09313965 192.81054688 C-98.1135874 188.84246843 -98.12273111 184.87436593 -98.1328125 180.90625 C-98.15427119 173.11842159 -98.18841303 165.33071604 -98.23046875 157.54296875 C-108.04665512 157.42388426 -108.04665512 157.42388426 -117.828125 158.12890625 Z M-82.23046875 157.54296875 C-82.23046875 180.31296875 -82.23046875 203.08296875 -82.23046875 226.54296875 C-71.14193565 223.77083548 -62.72291533 208.87790233 -56.99804688 199.53076172 C-50.35359623 188.34948017 -44.70355698 177.12118019 -41.23046875 164.54296875 C-40.90046875 163.55296875 -40.57046875 162.56296875 -40.23046875 161.54296875 C-46.44959437 160.13865006 -52.6536443 159.16047786 -58.98046875 158.41796875 C-59.68155762 158.33047363 -60.38264648 158.24297852 -61.10498047 158.15283203 C-68.24865834 157.35480823 -74.89485704 157.54296875 -82.23046875 157.54296875 Z M-25.23046875 164.54296875 C-25.400625 165.06503906 -25.57078125 165.58710937 -25.74609375 166.125 C-32.54746331 186.78235115 -41.60113402 206.4189328 -55.23046875 223.54296875 C-37.02897239 218.34254122 -19.70186127 207.69960911 -6.23046875 194.54296875 C-5.20715371 193.57018366 -4.1837097 192.59753423 -3.16015625 191.625 C2.65403373 186.02743808 7.62207289 180.52544885 11.76953125 173.54296875 C-6.40328739 167.2279418 -6.40328739 167.2279418 -25.23046875 164.54296875 Z M-169.23046875 167.35546875 C-170.33003906 167.61650391 -171.42960937 167.87753906 -172.5625 168.14648438 C-179.18945786 169.73836927 -185.72860332 171.49829352 -192.23046875 173.54296875 C-177.21473355 198.37765157 -152.6695347 215.2163892 -125.23046875 223.54296875 C-126.67238834 220.34222417 -128.55846103 217.5481273 -130.55615234 214.66992188 C-135.94012208 206.89240228 -140.25644023 198.88684871 -144.31762695 190.359375 C-145.25941624 188.48536797 -146.29192181 186.69171607 -147.359375 184.88671875 C-148.95819464 182.02953793 -149.97260983 179.67993871 -150.79296875 176.54296875 C-151.96099625 172.34577102 -153.42216932 168.50400559 -155.23046875 164.54296875 C-159.9239513 164.54296875 -164.68990631 166.26045284 -169.23046875 167.35546875 Z M-99.23046875 224.54296875 C-98.23046875 226.54296875 -98.23046875 226.54296875 -98.23046875 226.54296875 Z " fill="#CFABFE" transform="translate(602.23046875,387.45703125)"/>
<path d="M0 0 C0.97241638 -0.01283524 1.94483276 -0.02567047 2.94671631 -0.03889465 C4.52625092 -0.04997505 4.52625092 -0.04997505 6.13769531 -0.0612793 C7.77596283 -0.07338692 7.77596283 -0.07338692 9.44732666 -0.08573914 C11.76743991 -0.09958547 14.08757358 -0.11030516 16.40771484 -0.11816406 C18.75836235 -0.12961569 21.10898527 -0.14995737 23.45947266 -0.1796875 C36.63960472 -0.34637138 48.72499016 -0.39216121 61.21582031 4.17700195 C62.30564209 4.5656543 63.39546387 4.95430664 64.51831055 5.35473633 C85.88975425 13.2978167 100.23777914 29.78963731 110.42675781 49.47387695 C117.26624702 66.1948575 116.77043464 83.33066794 116.69159889 101.04772496 C116.67967427 104.93195551 116.69380311 108.81608504 116.70593262 112.70030212 C116.7324867 122.54673604 116.72599875 132.39304771 116.71582031 142.23950195 C116.70482404 152.87984321 116.69987414 163.51999269 116.73311472 174.1603021 C116.74419753 178.00936777 116.74707748 181.85805784 116.72996521 185.70710945 C116.20208507 214.29162401 116.20208507 214.29162401 127.21582031 240.17700195 C128.29863281 241.25208008 128.29863281 241.25208008 129.40332031 242.34887695 C131.21582031 244.17700195 131.21582031 244.17700195 131.21582031 246.17700195 C131.80363281 246.44899414 132.39144531 246.72098633 132.99707031 247.0012207 C135.1687503 248.15205816 136.830962 249.42292016 138.71582031 250.98950195 C144.89797033 255.67157145 151.95466478 258.27659662 159.36816406 260.38793945 C160.0784375 260.59346436 160.78871094 260.79898926 161.52050781 261.01074219 C162.90678865 261.40317265 164.29874768 261.77624445 165.69628906 262.12646484 C171.07031067 263.63051914 173.14378234 265.73259562 176.21582031 270.17700195 C177.53407201 274.04936632 177.3101533 275.85516001 176.15332031 279.80200195 C173.2939515 284.78283795 169.53372761 286.95992755 164.07910156 288.45043945 C162.56364942 288.8236676 161.04664754 289.19064775 159.52832031 289.55200195 C144.88369809 293.37002189 132.57201431 300.6620507 124.45800781 313.86450195 C117.96346752 325.9549669 116.91847988 337.64241362 116.96044922 351.19506836 C116.95769385 352.68780711 116.95401066 354.18054439 116.94947815 355.67327881 C116.94141022 358.87068288 116.93918658 362.06801722 116.94142532 365.26543045 C116.94427881 370.33662784 116.92982959 375.4076882 116.91244507 380.47885132 C116.86561572 394.89367621 116.84149755 409.308491 116.83496094 423.72338867 C116.83119228 431.69807158 116.81301995 439.67259831 116.77986658 447.64721429 C116.75982112 452.6723407 116.7571986 457.69705968 116.76814675 462.72220922 C116.77078227 465.86969971 116.75661326 469.01696039 116.73806572 472.16439056 C116.73281198 473.60574625 116.73412104 475.04714614 116.74310112 476.48848343 C116.87529535 499.60062455 108.70719003 519.1236399 92.77832031 535.98950195 C70.91543949 556.607344 43.1128674 561.01084709 14.21582031 560.17700195 C12.84466064 560.14002197 12.84466064 560.14002197 11.44580078 560.10229492 C8.57669965 560.01746764 5.70898324 559.9139604 2.84082031 559.80200195 C1.94258545 559.77130615 1.04435059 559.74061035 0.11889648 559.70898438 C-0.72310303 559.6700708 -1.56510254 559.63115723 -2.43261719 559.59106445 C-3.17688965 559.55964355 -3.92116211 559.52822266 -4.68798828 559.49584961 C-7.08460399 559.13130499 -8.71861043 558.43724674 -10.78417969 557.17700195 C-13.12288261 553.97211277 -14.49355121 551.14892441 -14.78417969 547.17700195 C-13.73803589 542.15551173 -11.97174473 539.16811984 -7.78417969 536.17700195 C1.6996998 534.23795505 11.87586417 535.13656336 21.51391602 535.34838867 C34.78755166 535.62277111 48.66987808 535.05566671 60.59082031 528.55200195 C61.24945068 528.20645264 61.90808105 527.86090332 62.58666992 527.50488281 C75.84916842 520.25203012 85.83044872 508.66291254 90.21582031 494.17700195 C93.12578842 478.58103115 92.44843803 462.57112397 92.35274506 446.77774072 C92.33248966 442.9771896 92.32570442 439.17661586 92.31787109 435.37602234 C92.29586178 425.74712834 92.25677463 416.11833121 92.21582031 406.48950195 C92.1715674 396.07696128 92.13047167 385.66446051 92.10898399 375.25184411 C92.09912844 370.75668295 92.07958005 366.26170875 92.05212402 361.76662219 C92.03702705 358.95579746 92.03053896 356.14499688 92.02619171 353.33413696 C92.02076677 351.44421703 92.00523499 349.55433416 91.98919678 347.66447449 C91.98622247 323.10536618 98.63524859 303.37886348 115.71582031 285.36450195 C118.14109289 282.98383209 120.59412164 281.25965271 123.52832031 279.55200195 C126.36095884 277.90282555 127.11443469 277.36709999 128.71582031 274.36450195 C128.88082031 273.64262695 129.04582031 272.92075195 129.21582031 272.17700195 C128.22582031 271.86762695 128.22582031 271.86762695 127.21582031 271.55200195 C123.14401845 269.68575943 119.52785033 267.20138668 116.21582031 264.17700195 C116.21582031 263.51700195 116.21582031 262.85700195 116.21582031 262.17700195 C115.55582031 262.17700195 114.89582031 262.17700195 114.21582031 262.17700195 C108.38981798 255.85286559 103.67255699 248.7655535 99.77832031 241.11450195 C99.4610498 240.50348633 99.1437793 239.8924707 98.81689453 239.26293945 C93.04741714 227.39571596 92.68466502 215.16409048 92.52832031 202.23950195 C92.49342927 200.24877319 92.45817509 198.25805077 92.42260742 196.26733398 C92.17982413 180.78581634 92.20618558 165.30442447 92.23144531 149.8215332 C92.23428322 147.73578392 92.23710603 145.65003461 92.23991394 143.56428528 C92.25413031 134.08645754 92.27524515 124.60883195 92.32515526 115.13111782 C92.3446293 111.11078613 92.35603961 107.09045479 92.36594391 103.07008934 C92.37253017 101.18621359 92.38273259 99.30234631 92.39690399 97.41851234 C92.68847874 77.31586239 92.68847874 77.31586239 87.21582031 58.17700195 C86.55582031 57.51700195 85.89582031 56.85700195 85.21582031 56.17700195 C84.92835938 55.41129883 84.64089844 54.6455957 84.34472656 53.85668945 C79.11382179 41.44007813 64.92662653 33.33769622 53.21582031 28.17700195 C40.72050106 23.31771113 25.08919878 25.08558039 11.85302734 25.27294922 C9.55728415 25.3032128 7.26169946 25.32091407 4.96582031 25.3371582 C4.27512451 25.35061783 3.58442871 25.36407745 2.87280273 25.37794495 C-2.31986384 25.40472732 -6.41193626 24.36312367 -11.03417969 22.05200195 C-13.72841983 19.16531609 -14.57176932 16.02779637 -14.78417969 12.17700195 C-14.02914532 8.13577038 -12.74723703 5.10996376 -9.78417969 2.23950195 C-6.43271861 0.45903826 -3.73150631 0.04300846 0 0 Z " fill="#CFABFD" transform="translate(687.7841796875,211.822998046875)"/>
<path d="M0 0 C0.97139923 -0.00428513 1.94279846 -0.00857025 2.94363403 -0.01298523 C4.97543564 -0.01867893 7.00725762 -0.01926588 9.0390625 -0.01489258 C12.14618148 -0.01170503 15.25237137 -0.03534834 18.359375 -0.06054688 C20.34374881 -0.06281765 22.32812516 -0.0635244 24.3125 -0.0625 C25.69850906 -0.07631462 25.69850906 -0.07631462 27.11251831 -0.09040833 C32.01415912 -0.05511414 35.25653083 0.15636413 39.2578125 3.30078125 C40.0003125 3.87828125 40.7428125 4.45578125 41.5078125 5.05078125 C43.94533634 8.18474047 44.19084194 10.34951836 44.2578125 14.30078125 C43.12555618 17.87632753 42.07224139 20.42817887 39.5078125 23.17578125 C34.33804 25.7606675 28.35348675 25.39995383 22.69921875 25.29296875 C21.24545003 25.27542439 19.79167348 25.25851888 18.33789062 25.2421875 C16.09392469 25.21158465 13.85037438 25.1764112 11.60668945 25.12939453 C-7.13640392 24.75890362 -24.49103447 26.99064303 -39.2421875 39.73828125 C-43.24479781 43.61642414 -46.76493695 47.58531556 -49.7421875 52.30078125 C-50.41894531 53.37005859 -50.41894531 53.37005859 -51.109375 54.4609375 C-59.80564707 69.87237824 -58.12692069 88.56594511 -57.98050618 105.61402965 C-57.95391077 109.16139352 -57.94661884 112.70879634 -57.93760681 116.25624084 C-57.91365884 124.48905303 -57.86702002 132.72165865 -57.81801605 140.95435333 C-57.75688951 151.42875632 -57.70722298 161.90318233 -57.67602152 172.37771803 C-57.66495183 175.89087064 -57.64927018 179.40387435 -57.62242317 182.9169445 C-57.39887804 212.23967563 -58.21125018 238.81442991 -79.7421875 261.30078125 C-85.08608649 266.13927672 -90.72089235 270.36005075 -96.7421875 274.30078125 C-96.07014282 274.79106812 -96.07014282 274.79106812 -95.38452148 275.29125977 C-93.31160836 276.80904745 -91.24567841 278.33608621 -89.1796875 279.86328125 C-88.47521484 280.37697266 -87.77074219 280.89066406 -87.04492188 281.41992188 C-73.53288348 291.44498262 -61.92573085 306.58517286 -59.08642578 323.60888672 C-57.26113906 337.88236994 -57.61870899 352.38674134 -57.66702271 366.74276733 C-57.6799868 370.64077296 -57.68635302 374.53874383 -57.69116211 378.43676758 C-57.70308411 387.42265252 -57.72505797 396.40850696 -57.74739075 405.39437103 C-57.76940682 414.28850631 -57.7871949 423.18262595 -57.79812622 432.07678223 C-57.80448892 435.86989718 -57.81699529 439.66295704 -57.82983398 443.45605469 C-57.85601259 454.93505839 -57.78033972 466.40869003 -57.42578125 477.8828125 C-57.40354996 478.87415695 -57.38131866 479.8655014 -57.3584137 480.8868866 C-56.83086886 495.05772325 -51.97138679 507.69411011 -42.19921875 518.1015625 C-30.81668212 528.28974712 -17.3660749 534.12649679 -2.1171875 534.86328125 C-0.82917236 534.93131958 -0.82917236 534.93131958 0.48486328 535.00073242 C5.71441164 535.24382724 10.91367617 535.307229 16.1484375 535.22265625 C17.30778809 535.2064624 18.46713867 535.19026855 19.66162109 535.17358398 C21.94098087 535.13398616 24.22011605 535.07676438 26.49853516 535.00024414 C32.75921446 534.89240056 36.55742731 534.98046021 41.2578125 539.30078125 C44.22048094 543.74478391 44.02727144 548.08979202 43.2578125 553.30078125 C41.0562151 556.19761993 39.47186788 557.69375356 36.2578125 559.30078125 C33.77231845 559.54304962 31.31216801 559.72817226 28.8203125 559.86328125 C28.0667749 559.90428955 27.3132373 559.94529785 26.53686523 559.98754883 C-4.71807499 561.54080905 -33.2553459 558.92352242 -57.7421875 537.30078125 C-70.73014064 524.9722165 -80.82650358 507.32355349 -81.93299866 489.17032051 C-82.0132641 485.43917207 -82.03251752 481.71050511 -82.02929688 477.97875977 C-82.03533196 476.54852411 -82.04225894 475.11829199 -82.05000305 473.68806458 C-82.06482236 470.62216219 -82.07362392 467.55632414 -82.07771301 464.49038887 C-82.08447537 459.62454485 -82.10629024 454.75883668 -82.13024902 449.89305115 C-82.17908548 439.54982657 -82.21143452 429.20657297 -82.2421875 418.86328125 C-82.27538028 407.72388196 -82.31165833 396.5845363 -82.36631823 385.4452185 C-82.3856604 381.40941402 -82.4010113 377.37368017 -82.40666199 373.3378315 C-81.09677269 336.88655029 -81.09677269 336.88655029 -97.1796875 305.67578125 C-98.0253125 304.89203125 -98.8709375 304.10828125 -99.7421875 303.30078125 C-100.23074219 302.81867188 -100.71929687 302.3365625 -101.22265625 301.83984375 C-107.28182372 296.16926897 -114.42099673 293.33899056 -122.2421875 290.83203125 C-123.43171021 290.45014648 -123.43171021 290.45014648 -124.64526367 290.06054688 C-126.21631635 289.56514552 -127.79193978 289.08394691 -129.37231445 288.61914062 C-134.52315865 287.01988431 -137.9458161 285.18516744 -141.7421875 281.30078125 C-143.28359572 277.69566946 -143.18603984 274.0866753 -142.24609375 270.3046875 C-140.50944472 266.44085114 -138.29352814 264.79215458 -134.4296875 263.17578125 C-131.35561991 262.1012178 -128.25383239 261.15088483 -125.140625 260.1953125 C-116.86074715 257.61183752 -109.7947781 254.47028218 -102.7421875 249.30078125 C-102.14921875 248.87925781 -101.55625 248.45773437 -100.9453125 248.0234375 C-91.98322159 241.16328029 -85.38291648 229.39410322 -83.7421875 218.30078125 C-82.30043442 205.84907812 -82.64029143 193.28769346 -82.69758797 180.77683258 C-82.71516921 176.80538788 -82.72555571 172.83396011 -82.73350525 168.86248779 C-82.75743917 157.57950952 -82.79333773 146.29658591 -82.83813477 135.01367188 C-82.86289074 128.75812487 -82.8801252 122.50259901 -82.88969415 116.24700999 C-82.89509507 112.95458428 -82.90550265 109.66229725 -82.92308235 106.36991119 C-83.07013871 78.58385552 -82.57271722 48.6620251 -61.7421875 27.30078125 C-61.0821875 27.30078125 -60.4221875 27.30078125 -59.7421875 27.30078125 C-59.4740625 26.66140625 -59.2059375 26.02203125 -58.9296875 25.36328125 C-57.7421875 23.30078125 -57.7421875 23.30078125 -54.7421875 22.30078125 C-54.7421875 21.64078125 -54.7421875 20.98078125 -54.7421875 20.30078125 C-52.64567799 18.71806421 -50.55542545 17.24575694 -48.3671875 15.80078125 C-43.83376396 12.8322522 -43.83376396 12.8322522 -39.7421875 9.30078125 C-37.00587321 7.9559394 -34.14517159 6.90554235 -31.3046875 5.80078125 C-30.54736328 5.49269531 -29.79003906 5.18460938 -29.00976562 4.8671875 C-19.53958782 1.16181146 -10.11952614 -0.0101145 0 0 Z " fill="#CFABFE" transform="translate(301.7421875,211.69921875)"/>
<path d="M0 0 C3.4289658 0.6626902 4.72948553 1.90777157 7.203125 4.42578125 C9.44614266 7.93593822 11.34992596 11.60418517 13.265625 15.30078125 C14.4149379 17.47027818 15.56468749 19.63954381 16.71484375 21.80859375 C17.58375244 23.46036621 17.58375244 23.46036621 18.47021484 25.14550781 C21.12948707 30.17931756 23.85062856 35.17870191 26.578125 40.17578125 C27.0736084 41.08827637 27.5690918 42.00077148 28.07958984 42.94091797 C31.23151537 48.72494049 34.49810088 54.40511014 37.99609375 59.98828125 C39.41089721 62.84536008 39.92853455 65.25511968 40.203125 68.42578125 C38.61356837 72.69248589 36.98706895 74.97397525 33.203125 77.42578125 C30.84410095 78.31130981 30.84410095 78.31130981 28.20678711 79.03564453 C27.21573471 79.31248077 26.22468231 79.58931702 25.20359802 79.87454224 C24.13996536 80.16215424 23.0763327 80.44976624 21.98046875 80.74609375 C20.88344131 81.05022186 19.78641388 81.35434998 18.65614319 81.66769409 C15.15317988 82.63695179 11.6470453 83.59411351 8.140625 84.55078125 C4.63143172 85.51732788 1.12290667 86.48627383 -2.38560486 87.45529175 C-4.5686078 88.05720136 -6.75215673 88.65713495 -8.93629456 89.25491333 C-9.92419479 89.52544525 -10.91209503 89.79597717 -11.92993164 90.07470703 C-12.79944962 90.3121463 -13.66896759 90.54958557 -14.56483459 90.79421997 C-16.32266576 91.29160259 -18.06377838 91.84808238 -19.796875 92.42578125 C-24.31954214 92.94241551 -27.72926571 93.03908871 -31.734375 90.73828125 C-34.81221777 87.28736663 -35.8616443 85.01262899 -35.671875 80.36328125 C-34.59421227 76.74541351 -33.78482091 75.75275731 -30.796875 73.42578125 C-27.48847247 72.15581039 -24.09714428 71.26199052 -20.671875 70.36328125 C-18.85401966 69.88268415 -17.03873312 69.3922317 -15.2265625 68.890625 C-14.42460449 68.68042725 -13.62264648 68.47022949 -12.79638672 68.25366211 C-10.44173209 67.4960087 -10.44173209 67.4960087 -8.796875 64.42578125 C-8.466875 65.08578125 -8.136875 65.74578125 -7.796875 66.42578125 C-6.146875 66.42578125 -4.496875 66.42578125 -2.796875 66.42578125 C-2.796875 65.76578125 -2.796875 65.10578125 -2.796875 64.42578125 C-3.42464844 64.32910156 -4.05242187 64.23242188 -4.69921875 64.1328125 C-8.14105055 63.34722416 -11.36188135 62.22464711 -14.68774414 61.05126953 C-55.98040271 46.55374653 -100.47921593 48.92875037 -140.05078125 67.8984375 C-155.64098588 75.64531684 -169.7138507 84.98607792 -182.28125 97.05078125 C-184.796875 99.42578125 -184.796875 99.42578125 -187.43359375 101.53125 C-191.05463984 104.43407207 -193.83441684 107.86758196 -196.796875 111.42578125 C-197.22919434 111.93512207 -197.66151367 112.44446289 -198.10693359 112.96923828 C-210.37609349 127.4737556 -219.65236012 143.31293849 -227.796875 160.42578125 C-228.46783203 161.72902344 -228.46783203 161.72902344 -229.15234375 163.05859375 C-239.20149376 183.28697985 -244.12172025 207.9487545 -244.796875 230.42578125 C-244.8484375 231.65167969 -244.9 232.87757813 -244.953125 234.140625 C-246.14698576 274.91022692 -232.49941818 313.84959084 -208.6171875 346.515625 C-206.84652988 349.34639738 -206.03859461 351.12411106 -205.796875 354.42578125 C-207.00225159 358.30977249 -207.97002383 360.73301405 -211.109375 363.36328125 C-214.35898629 364.6480113 -216.3272314 364.92144462 -219.796875 364.42578125 C-224.64892427 361.70785525 -227.20431779 358.88077033 -230.109375 354.17578125 C-230.48618408 353.56806885 -230.86299316 352.96035645 -231.2512207 352.33422852 C-232.45305388 350.37598987 -233.62899868 348.40444249 -234.796875 346.42578125 C-235.18842773 345.76368652 -235.57998047 345.1015918 -235.98339844 344.41943359 C-246.67253315 326.19308851 -254.42200685 307.3948731 -259.81640625 286.99609375 C-260.61959755 283.61834294 -260.61959755 283.61834294 -261.796875 281.42578125 C-261.9836554 280.09756507 -262.12068328 278.76223901 -262.234375 277.42578125 C-262.52058889 274.1712523 -262.86207795 270.9487966 -263.3046875 267.7109375 C-270.77732419 212.41079014 -255.96038185 155.47492406 -222.609375 110.80078125 C-218.58604739 105.52211305 -214.36018784 100.47406689 -209.83203125 95.6171875 C-207.2197204 92.80431535 -204.76126009 89.87094885 -202.3046875 86.921875 C-200.796875 85.42578125 -200.796875 85.42578125 -197.796875 84.42578125 C-197.796875 83.76578125 -197.796875 83.10578125 -197.796875 82.42578125 C-194.90740327 79.69856927 -191.73633915 77.30442089 -188.61132812 74.85302734 C-187.3579326 73.86710831 -186.10952634 72.87482508 -184.86523438 71.87744141 C-175.00407709 63.97660596 -165.07032581 57.14310559 -153.796875 51.42578125 C-153.05179687 51.04437988 -152.30671875 50.66297852 -151.5390625 50.27001953 C-129.0608035 38.87583515 -104.20175883 30.80536329 -78.796875 30.42578125 C-78.0013623 30.40676758 -77.20584961 30.38775391 -76.38623047 30.36816406 C-50.33189264 29.78374979 -27.45811027 33.62250613 -3.04418945 42.61962891 C-0.30974541 43.60052344 2.44475558 44.51463783 5.203125 45.42578125 C3.12114619 41.57088142 1.0372989 37.71699466 -1.046875 33.86328125 C-1.63339844 32.77724609 -2.21992187 31.69121094 -2.82421875 30.57226562 C-3.39785156 29.51201172 -3.97148438 28.45175781 -4.5625 27.359375 C-5.11945557 26.3290918 -5.67641113 25.29880859 -6.25024414 24.23730469 C-7.51936773 21.93024435 -8.83202863 19.66520391 -10.18359375 17.40625 C-12.49486009 13.13628338 -12.49055693 11.20447896 -11.796875 6.42578125 C-9.359375 3.48828125 -9.359375 3.48828125 -6.796875 1.42578125 C-4.96555194 -0.40554181 -2.4449279 0.1353109 0 0 Z " fill="#CFABFE" transform="translate(577.796875,252.57421875)"/>
<path d="M0 0 C4.71299394 2.12918215 6.84014073 5.32523643 9.3125 9.6875 C9.69784912 10.35104492 10.08319824 11.01458984 10.48022461 11.69824219 C40.02239855 63.24119512 50.77975208 120.87641809 35.72265625 179.06640625 C29.23647423 202.71010598 18.35296741 226.09835091 4 246 C3.31550781 246.95777344 2.63101562 247.91554688 1.92578125 248.90234375 C-10.40780626 265.75308 -24.26654863 280.47905941 -41 293 C-41.83144531 293.62648438 -42.66289063 294.25296875 -43.51953125 294.8984375 C-69.71932166 313.91225473 -100.87012297 326.12264716 -133 330 C-133.75071777 330.0942627 -134.50143555 330.18852539 -135.27490234 330.28564453 C-142.1469854 331.06916979 -148.96375091 331.14925 -155.875 331.125 C-156.96941406 331.12886719 -158.06382812 331.13273437 -159.19140625 331.13671875 C-165.74117634 331.12896754 -172.13447203 330.78801947 -178.64111328 330.01904297 C-179.4195459 330.01275879 -180.19797852 330.00647461 -181 330 C-181.66 330.66 -182.32 331.32 -183 332 C-184.32 331.34 -185.64 330.68 -187 330 C-186.67 329.34 -186.34 328.68 -186 328 C-186.60368408 327.9589917 -187.20736816 327.9179834 -187.8293457 327.87573242 C-194.20475862 327.35299648 -200.06246584 326.12626 -206.1875 324.3125 C-207.09008545 324.05065918 -207.9926709 323.78881836 -208.92260742 323.51904297 C-216.83143168 321.16733555 -224.43054916 318.27893262 -232 315 C-231.19949219 316.41925781 -231.19949219 316.41925781 -230.3828125 317.8671875 C-228.80642023 320.66342415 -227.23438235 323.46206803 -225.6640625 326.26171875 C-223.85845897 329.47967262 -222.03875325 332.68914786 -220.2109375 335.89453125 C-219.30710631 337.49208265 -218.40345608 339.08973644 -217.5 340.6875 C-217.06703613 341.4407959 -216.63407227 342.1940918 -216.18798828 342.97021484 C-212.27407222 349.92497878 -212.27407222 349.92497878 -212 354 C-213.18456396 357.8169283 -214.22282442 360.28943947 -217.1875 363 C-220.92528569 364.32899047 -224.32221218 364.4488255 -228 363 C-233.19598339 358.86855955 -235.64079539 353.41759409 -238.5625 347.5625 C-239.615344 345.49775685 -240.67008383 343.43397949 -241.7265625 341.37109375 C-242.26442383 340.31776855 -242.80228516 339.26444336 -243.35644531 338.17919922 C-245.97259441 333.11866838 -248.69884753 328.12002382 -251.4375 323.125 C-251.920979 322.24142822 -252.40445801 321.35785645 -252.90258789 320.44750977 C-253.36656982 319.60115967 -253.83055176 318.75480957 -254.30859375 317.8828125 C-254.75388428 317.06941406 -255.1991748 316.25601562 -255.65795898 315.41796875 C-256.56904668 313.77645291 -257.49626997 312.14381 -258.43774414 310.51953125 C-258.89141357 309.73191406 -259.34508301 308.94429687 -259.8125 308.1328125 C-260.21984375 307.43816895 -260.6271875 306.74352539 -261.046875 306.02783203 C-262.74095692 302.42356861 -262.59047204 299.93648026 -262 296 C-258.87102601 290.70340911 -255.15539451 289.62281129 -249.54296875 288.0546875 C-248.70791306 287.80685516 -247.87285736 287.55902283 -247.01249695 287.30368042 C-244.34648696 286.51798509 -241.67399783 285.7580132 -239 285 C-237.27528443 284.49864566 -235.5508343 283.99637724 -233.82666016 283.49316406 C-229.53128015 282.2480836 -225.22673632 281.03933554 -220.91625977 279.84765625 C-218.27271027 279.11395662 -215.63356997 278.36555562 -212.99414062 277.6171875 C-211.28410449 277.14232679 -209.57382672 276.6683352 -207.86328125 276.1953125 C-206.70219597 275.86262863 -206.70219597 275.86262863 -205.51765442 275.52322388 C-200.52944386 274.16723121 -196.17491785 273.59274542 -191 274 C-187.08228592 277.16751351 -185.19151709 279.30826567 -184.625 284.3125 C-185.10750711 289.05715325 -186.35923472 290.00765598 -190 293 C-192.63401786 294.05921144 -195.03462465 294.8947286 -197.75 295.625 C-199.09925298 296.01199504 -200.44820969 296.40002443 -201.796875 296.7890625 C-202.80717773 297.07378418 -202.80717773 297.07378418 -203.83789062 297.36425781 C-207.59372233 298.46861483 -211.29538691 299.73603515 -215 301 C-184.71495674 310.37058612 -152.29625499 314.35636389 -121 307 C-119.74703125 306.7215625 -118.4940625 306.443125 -117.203125 306.15625 C-89.43525313 299.36073705 -60.24989011 286.1562052 -40.26953125 265.18359375 C-39 264 -39 264 -37 264 C-37 263.34 -37 262.68 -37 262 C-36.34 262 -35.68 262 -35 262 C-35 261.34 -35 260.68 -35 260 C-33.34268592 258.65505926 -31.67426362 257.32378128 -30 256 C-26.82737999 252.47421265 -23.94452735 248.71717133 -21 245 C-19.83791016 243.61361328 -19.83791016 243.61361328 -18.65234375 242.19921875 C12.33941727 204.1524227 26.09439237 152.6568321 21.5390625 104.20703125 C18.0406181 74.4771787 6.57653696 46.0977208 -9.11889648 20.78198242 C-12.28011302 15.67572688 -13.62823501 12.07293841 -13 6 C-8.93395236 1.07794233 -6.35088224 -0.49810841 0 0 Z " fill="#D0ABFE" transform="translate(668,372)"/>
<path d="M0 0 C0.33 0 0.66 0 1 0 C1.47981648 3.0207314 1.95887232 6.04158021 2.4375 9.0625 C2.57220703 9.91005859 2.70691406 10.75761719 2.84570312 11.63085938 C3.60314397 16.41566861 4.32948293 21.20222252 5 26 C2 24 2 24 0.8125 20.3125 C-0.51326836 13.62887438 -0.16076327 6.77885132 0 0 Z " fill="#D8B2FD" transform="translate(376,506)"/>
<path d="M0 0 C0 0.33 0 0.66 0 1 C-3.3 1 -6.6 1 -10 1 C-10 1.66 -10 2.32 -10 3 C-15.70690634 3.99250545 -21.21408489 4.10477512 -27 4 C-19.43973079 -1.04017947 -8.77603325 -0.28008617 0 0 Z " fill="#D8B2FD" transform="translate(501,302)"/>
<path d="M0 0 C-2.2013664 1.14144924 -4.37895705 2.14982023 -6.6875 3.0625 C-8.92435966 3.79447966 -8.92435966 3.79447966 -10 5 C-10.36760731 7.32817964 -10.70241581 9.6618385 -11 12 C-11.33 12 -11.66 12 -12 12 C-12.05399736 10.54207116 -12.09279177 9.08357288 -12.125 7.625 C-12.15980469 6.40683594 -12.15980469 6.40683594 -12.1953125 5.1640625 C-12 3 -12 3 -10 1 C-6.68421778 -0.18420794 -3.49088913 -0.07933839 0 0 Z " fill="#D8B2FD" transform="translate(579,254)"/>
<path d="M0 0 C0.66 0.33 1.32 0.66 2 1 C2 3.97 2 6.94 2 10 C1.67 10 1.34 10 1 10 C0.67 11.65 0.34 13.3 0 15 C-0.33 15 -0.66 15 -1 15 C-1.10251672 9.87416389 -1.03590199 5.05002222 0 0 Z " fill="#D8B2FD" transform="translate(583,502)"/>
<path d="M0 0 C2.02558881 3.34939881 2.21738987 5.86962551 2.125 9.75 C2.10695313 10.73484375 2.08890625 11.7196875 2.0703125 12.734375 C2.04710937 13.48203125 2.02390625 14.2296875 2 15 C1.67 15 1.34 15 1 15 C-0.66251802 9.42567486 -1.18609365 5.6932495 0 0 Z " fill="#D9B3FE" transform="translate(440,500)"/>
<path d="M0 0 C0.33 0 0.66 0 1 0 C1.3690205 14.78132118 1.3690205 14.78132118 -1 21 C-1.33 21 -1.66 21 -2 21 C-1.85845864 18.43719792 -1.71191438 15.87484515 -1.5625 13.3125 C-1.52318359 12.59126953 -1.48386719 11.87003906 -1.44335938 11.12695312 C-1.21814322 7.33292718 -0.87160695 3.71348508 0 0 Z " fill="#DAB2FE" transform="translate(455,457)"/>
<path d="M0 0 C0.33 0 0.66 0 1 0 C0.88570603 1.77155654 0.75816963 3.54226229 0.625 5.3125 C0.52058594 6.79169922 0.52058594 6.79169922 0.4140625 8.30078125 C0 11 0 11 -2 14 C-2.3690205 4.58997722 -2.3690205 4.58997722 0 0 Z " fill="#D9B2FE" transform="translate(636,505)"/>
<path d="M0 0 C3.3 0 6.6 0 10 0 C6.52630934 1.73684533 4.92380063 2.30084112 1.25 2.625 C0.45078125 2.69976562 -0.3484375 2.77453125 -1.171875 2.8515625 C-1.77515625 2.90054687 -2.3784375 2.94953125 -3 3 C-2.01 2.67 -1.02 2.34 0 2 C0 1.34 0 0.68 0 0 Z " fill="#D8B3FE" transform="translate(480,357)"/>
<path d="M0 0 C2.12046792 3.53411321 2.53199289 6.94393835 3 11 C1.5 10 1.5 10 0 8 C-0.27345479 5.28153765 -0.13491285 2.74322801 0 0 Z " fill="#D9B2FD" transform="translate(631,455)"/>
<path d="M0 0 C4.62 0 9.24 0 14 0 C14 0.33 14 0.66 14 1 C9.38 1 4.76 1 0 1 C0 0.67 0 0.34 0 0 Z " fill="#D1AFFA" transform="translate(595,502)"/>
<path d="M0 0 C3.3 0 6.6 0 10 0 C10 0.33 10 0.66 10 1 C6.7 1 3.4 1 0 1 C0 0.67 0 0.34 0 0 Z " fill="#D1AFFB" transform="translate(480,502)"/>
<path d="M0 0 C2.31 0 4.62 0 7 0 C7 0.33 7 0.66 7 1 C4.69 1 2.38 1 0 1 C0 0.67 0 0.34 0 0 Z " fill="#D1B0FB" transform="translate(624,502)"/>
<path d="M0 0 C2.31 0 4.62 0 7 0 C7 0.33 7 0.66 7 1 C4.69 1 2.38 1 0 1 C0 0.67 0 0.34 0 0 Z " fill="#D1AFFA" transform="translate(616,502)"/>
<path d="M0 0 C2.31 0 4.62 0 7 0 C7 0.33 7 0.66 7 1 C4.69 1 2.38 1 0 1 C0 0.67 0 0.34 0 0 Z " fill="#D2B0FA" transform="translate(544,502)"/>
<path d="M0 0 C2.31 0 4.62 0 7 0 C7 0.33 7 0.66 7 1 C4.69 1 2.38 1 0 1 C0 0.67 0 0.34 0 0 Z " fill="#D1AFFB" transform="translate(472,502)"/>
<path d="M0 0 C2.31 0 4.62 0 7 0 C7 0.33 7 0.66 7 1 C4.69 1 2.38 1 0 1 C0 0.67 0 0.34 0 0 Z " fill="#D1AFFB" transform="translate(400,502)"/>
<path d="M0 0 C1.65 0 3.3 0 5 0 C5 0.33 5 0.66 5 1 C3.35 1 1.7 1 0 1 C0 0.67 0 0.34 0 0 Z " fill="#D1AFFB" transform="translate(553,502)"/>
<path d="M0 0 C1.32 0.33 2.64 0.66 4 1 C2.68 1.33 1.36 1.66 0 2 C0 1.34 0 0.68 0 0 Z " fill="#D2B1FC" transform="translate(432,502)"/>
<path d="M0 0 C1.65 0 3.3 0 5 0 C5 0.33 5 0.66 5 1 C3.35 1 1.7 1 0 1 C0 0.67 0 0.34 0 0 Z " fill="#D2B0FC" transform="translate(416,502)"/>
<path d="M0 0 C1.65 0 3.3 0 5 0 C5 0.33 5 0.66 5 1 C3.35 1 1.7 1 0 1 C0 0.67 0 0.34 0 0 Z " fill="#D2B0FC" transform="translate(555,455)"/>
<path d="M0 0 C4 1 4 1 4 1 Z " fill="#CEACF7" transform="translate(491,703)"/>
<path d="M0 0 C0.66 0 1.32 0 2 0 C1.67 0.99 1.34 1.98 1 3 C0.67 2.01 0.34 1.02 0 0 Z " fill="#D1B2FB" transform="translate(632,502)"/>
<path d="M0 0 C4 1 4 1 4 1 Z " fill="#D2AFFB" transform="translate(539,502)"/>
<path d="M0 0 C4 1 4 1 4 1 Z " fill="#D1AEFA" transform="translate(531,502)"/>
<path d="M0 0 C4 1 4 1 4 1 Z " fill="#D1B0FB" transform="translate(496,502)"/>
<path d="M0 0 C4 1 4 1 4 1 Z " fill="#D1AFFA" transform="translate(467,502)"/>
<path d="M0 0 C4 1 4 1 4 1 Z " fill="#D1AFF9" transform="translate(411,502)"/>
<path d="M0 0 C1.485 0.99 1.485 0.99 3 2 C2.01 2 1.02 2 0 2 C0 1.34 0 0.68 0 0 Z " fill="#D3B1FE" transform="translate(412,425)"/>
<path d="M0 0 C3 1 3 1 3 1 Z " fill="#CFAFF4" transform="translate(532,703)"/>
<path d="M0 0 C3 1 3 1 3 1 Z " fill="#D1AFFC" transform="translate(549,548)"/>
<path d="M0 0 C3 1 3 1 3 1 Z " fill="#D1AFFC" transform="translate(469,530)"/>
<path d="M0 0 C3 1 3 1 3 1 Z " fill="#D1B0FA" transform="translate(591,502)"/>
<path d="M0 0 C3 1 3 1 3 1 Z " fill="#D2AFFA" transform="translate(604,447)"/>
<path d="M0 0 C0.66 0 1.32 0 2 0 C1.67 0.66 1.34 1.32 1 2 C0.67 1.34 0.34 0.68 0 0 Z " fill="#D3B1FC" transform="translate(681,446)"/>
<path d="M0 0 C3 1 3 1 3 1 Z " fill="#D3B0FC" transform="translate(608,446)"/>
<path d="" fill="#D1B0FC" transform="translate(0,0)"/>
<path d="M0 0 C0.33 0.66 0.66 1.32 1 2 C0.34 1.67 -0.32 1.34 -1 1 C-0.67 0.67 -0.34 0.34 0 0 Z " fill="#D2AFFB" transform="translate(501,374)"/>
<path d="M0 0 C0.66 0.66 1.32 1.32 2 2 C1.34 2 0.68 2 0 2 C0 1.34 0 0.68 0 0 Z " fill="#D2B0FC" transform="translate(552,310)"/>
<path d="M0 0 C3 1 3 1 3 1 Z " fill="#D3B0FC" transform="translate(541,308)"/>
<path d="M0 0 C3 1 3 1 3 1 Z " fill="#D1AFFB" transform="translate(478,307)"/>
<path d="M0 0 C3 1 3 1 3 1 Z " fill="#CEAEF8" transform="translate(457,288)"/>
<path d="M0 0 C0.99 0.495 0.99 0.495 2 1 C1.01 1.495 1.01 1.495 0 2 C0 1.34 0 0.68 0 0 Z " fill="#CFAFF9" transform="translate(728,238)"/>
<path d="M0 0 C2 1 2 1 2 1 Z " fill="#C9ACF2" transform="translate(292,772)"/>
<path d="M0 0 C2 1 2 1 2 1 Z " fill="#CCACF2" transform="translate(749,767)"/>
<path d="M0 0 C2 1 2 1 2 1 Z " fill="#C8AAF2" transform="translate(272,767)"/>
<path d="M0 0 C2 1 2 1 2 1 Z " fill="#D0AFF6" transform="translate(525,703)"/>
<path d="" fill="#CEADF6" transform="translate(0,0)"/>
<path d="M0 0 C2 1 2 1 2 1 Z " fill="#CFADF8" transform="translate(544,701)"/>
<path d="M0 0 C2 1 2 1 2 1 Z " fill="#D0AFF7" transform="translate(577,692)"/>
<path d="" fill="#CFAEF8" transform="translate(0,0)"/>
<path d="M0 0 C2 1 2 1 2 1 Z " fill="#D1B0FB" transform="translate(441,691)"/>
<path d="M0 0 C2 1 2 1 2 1 Z " fill="#D3B1FE" transform="translate(471,643)"/>
<path d="M0 0 C2 1 2 1 2 1 Z " fill="#D3AFFD" transform="translate(473,628)"/>
<path d="" fill="#D2AFFC" transform="translate(0,0)"/>
<path d="" fill="#D0AFFC" transform="translate(0,0)"/>
<path d="" fill="#D0B0FB" transform="translate(0,0)"/>
<path d="" fill="#D0B0FC" transform="translate(0,0)"/>
<path d="M0 0 C2 1 2 1 2 1 Z " fill="#D2B0FC" transform="translate(603,559)"/>
<path d="M0 0 C2 1 2 1 2 1 Z " fill="#D4B1FC" transform="translate(421,559)"/>
<path d="M0 0 C2 1 2 1 2 1 Z " fill="#D2AFFC" transform="translate(426,558)"/>
<path d="M0 0 C2 1 2 1 2 1 Z " fill="#D2B1FD" transform="translate(464,550)"/>
<path d="M0 0 C2 1 2 1 2 1 Z " fill="#D2AFFC" transform="translate(476,548)"/>
<path d="M0 0 C2 1 2 1 2 1 Z " fill="#D2B1FC" transform="translate(380,543)"/>
<path d="M0 0 C2 1 2 1 2 1 Z " fill="#D2B0FD" transform="translate(426,538)"/>
<path d="" fill="#D3B1FC" transform="translate(0,0)"/>
<path d="" fill="#D1AFFC" transform="translate(0,0)"/>
<path d="" fill="#D1AEFB" transform="translate(0,0)"/>
<path d="" fill="#D1B1FC" transform="translate(0,0)"/>
<path d="" fill="#D3B3FC" transform="translate(0,0)"/>
<path d="M0 0 C2 1 2 1 2 1 Z " fill="#D3AFFB" transform="translate(611,502)"/>
<path d="M0 0 C2 1 2 1 2 1 Z " fill="#D1AFFA" transform="translate(565,502)"/>
<path d="M0 0 C2 1 2 1 2 1 Z " fill="#D1B1FD" transform="translate(560,502)"/>
<path d="M0 0 C2 1 2 1 2 1 Z " fill="#D3B0FC" transform="translate(536,502)"/>
<path d="M0 0 C2 1 2 1 2 1 Z " fill="#D2B0FB" transform="translate(528,502)"/>
<path d="M0 0 C2 1 2 1 2 1 Z " fill="#D0AEF9" transform="translate(501,502)"/>
<path d="M0 0 C2 1 2 1 2 1 Z " fill="#D1AFFB" transform="translate(491,502)"/>
<path d="M0 0 C2 1 2 1 2 1 Z " fill="#D1AFFB" transform="translate(464,502)"/>
<path d="M0 0 C2 1 2 1 2 1 Z " fill="#D0AFFC" transform="translate(459,502)"/>
<path d="M0 0 C2 1 2 1 2 1 Z " fill="#D2B0FC" transform="translate(427,502)"/>
<path d="M0 0 C2 1 2 1 2 1 Z " fill="#D1B1FB" transform="translate(408,502)"/>
<path d="M0 0 C2 1 2 1 2 1 Z " fill="#D0AEF9" transform="translate(397,502)"/>
<path d="M0 0 C2 1 2 1 2 1 Z " fill="#D2B0FD" transform="translate(392,502)"/>
<path d="" fill="#D2B1FD" transform="translate(0,0)"/>
<path d="" fill="#D3B2FD" transform="translate(0,0)"/>
<path d="" fill="#D3B1FD" transform="translate(0,0)"/>
<path d="M0 0 C2 1 2 1 2 1 Z " fill="#D3B0FB" transform="translate(567,483)"/>
<path d="" fill="#D1B0FB" transform="translate(0,0)"/>
<path d="M0 0 C2 1 2 1 2 1 Z " fill="#D3B0FC" transform="translate(800,478)"/>
<path d="" fill="#D1AFFB" transform="translate(0,0)"/>
<path d="M0 0 C2 1 2 1 2 1 Z " fill="#D3B1FD" transform="translate(627,457)"/>
<path d="" fill="#D2B1FC" transform="translate(0,0)"/>
<path d="M0 0 C2 1 2 1 2 1 Z " fill="#D2AEFB" transform="translate(460,455)"/>
<path d="" fill="#D3B1FE" transform="translate(0,0)"/>
<path d="" fill="#D3B0FC" transform="translate(0,0)"/>
<path d="M0 0 C2 1 2 1 2 1 Z " fill="#D3B0FD" transform="translate(547,409)"/>
<path d="M0 0 C2 1 2 1 2 1 Z " fill="#D2AEFB" transform="translate(576,391)"/>
<path d="M0 0 C2 1 2 1 2 1 Z " fill="#D0B0FB" transform="translate(513,352)"/>
<path d="M0 0 C2 1 2 1 2 1 Z " fill="#D1AFFC" transform="translate(507,352)"/>
<path d="M0 0 C2 1 2 1 2 1 Z " fill="#D1B0FA" transform="translate(579,339)"/>
<path d="M0 0 C2 1 2 1 2 1 Z " fill="#D1B0FB" transform="translate(476,308)"/>
<path d="M0 0 C2 1 2 1 2 1 Z " fill="#D2AFFC" transform="translate(538,307)"/>
<path d="M0 0 C2 1 2 1 2 1 Z " fill="#D1AFFB" transform="translate(486,306)"/>
<path d="M0 0 C2 1 2 1 2 1 Z " fill="#CEAEF7" transform="translate(432,298)"/>
<path d="" fill="#C9AEF2" transform="translate(0,0)"/>
<path d="" fill="#CCADF4" transform="translate(0,0)"/>
<path d="M0 0 C2 1 2 1 2 1 Z " fill="#CFAFF8" transform="translate(275,243)"/>
<path d="" fill="#CBABF2" transform="translate(0,0)"/>
<path d="" fill="#C7ABEE" transform="translate(0,0)"/>
<path d="" fill="#C9A8EF" transform="translate(0,0)"/>
<path d="" fill="#CCABF0" transform="translate(0,0)"/>
<path d="" fill="#C9AAEF" transform="translate(0,0)"/>
<path d="" fill="#C8A9F0" transform="translate(0,0)"/>
<path d="" fill="#CBABF3" transform="translate(0,0)"/>
<path d="" fill="#CBAAF1" transform="translate(0,0)"/>
<path d="" fill="#CDAEF6" transform="translate(0,0)"/>
<path d="" fill="#CCADF6" transform="translate(0,0)"/>
<path d="" fill="#CEACF5" transform="translate(0,0)"/>
<path d="" fill="#C7A8F0" transform="translate(0,0)"/>
<path d="" fill="#CEAFF7" transform="translate(0,0)"/>
<path d="" fill="#C9ACF1" transform="translate(0,0)"/>
<path d="" fill="#CBADF3" transform="translate(0,0)"/>
<path d="" fill="#D1B2FA" transform="translate(0,0)"/>
<path d="" fill="#CCACF6" transform="translate(0,0)"/>
<path d="" fill="#C9ACF4" transform="translate(0,0)"/>
<path d="" fill="#CCABF6" transform="translate(0,0)"/>
<path d="" fill="#CDAFF6" transform="translate(0,0)"/>
<path d="" fill="#D0ADF8" transform="translate(0,0)"/>
<path d="" fill="#D1B1FB" transform="translate(0,0)"/>
<path d="" fill="#CCADF6" transform="translate(0,0)"/>
<path d="" fill="#CFAEF8" transform="translate(0,0)"/>
<path d="" fill="#CAAAF3" transform="translate(0,0)"/>
<path d="" fill="#CDADF7" transform="translate(0,0)"/>
<path d="" fill="#CFAEFA" transform="translate(0,0)"/>
<path d="" fill="#CFAFF8" transform="translate(0,0)"/>
<path d="" fill="#CFAEF9" transform="translate(0,0)"/>
<path d="" fill="#D0AEFB" transform="translate(0,0)"/>
<path d="" fill="#D2AFFB" transform="translate(0,0)"/>
<path d="" fill="#CCADF6" transform="translate(0,0)"/>
<path d="" fill="#D1AEF9" transform="translate(0,0)"/>
<path d="" fill="#D1AFFA" transform="translate(0,0)"/>
<path d="" fill="#CDACF4" transform="translate(0,0)"/>
<path d="" fill="#CEAEF7" transform="translate(0,0)"/>
<path d="" fill="#D1B2FB" transform="translate(0,0)"/>
<path d="" fill="#D1B0F9" transform="translate(0,0)"/>
<path d="" fill="#D3B1FC" transform="translate(0,0)"/>
<path d="" fill="#D2B0FA" transform="translate(0,0)"/>
<path d="" fill="#D0B0FA" transform="translate(0,0)"/>
<path d="" fill="#D0AEFA" transform="translate(0,0)"/>
<path d="" fill="#D2B0FA" transform="translate(0,0)"/>
<path d="" fill="#D0AFF9" transform="translate(0,0)"/>
<path d="" fill="#D0B1FB" transform="translate(0,0)"/>
<path d="" fill="#D1B0FC" transform="translate(0,0)"/>
<path d="" fill="#D2B1FB" transform="translate(0,0)"/>
<path d="" fill="#D2B1FC" transform="translate(0,0)"/>
<path d="" fill="#D4B0FD" transform="translate(0,0)"/>
<path d="" fill="#D4B1FD" transform="translate(0,0)"/>
<path d="" fill="#D3B4FC" transform="translate(0,0)"/>
<path d="" fill="#D2B2FC" transform="translate(0,0)"/>
<path d="" fill="#D3B0FD" transform="translate(0,0)"/>
<path d="" fill="#CCADF7" transform="translate(0,0)"/>
<path d="" fill="#D1B0FA" transform="translate(0,0)"/>
<path d="" fill="#D2B0F7" transform="translate(0,0)"/>
<path d="" fill="#D4B2FC" transform="translate(0,0)"/>
<path d="" fill="#D4B0FE" transform="translate(0,0)"/>
<path d="" fill="#D1AEF9" transform="translate(0,0)"/>
<path d="" fill="#D1B0FC" transform="translate(0,0)"/>
<path d="" fill="#CDACF5" transform="translate(0,0)"/>
<path d="" fill="#D4B0FA" transform="translate(0,0)"/>
<path d="" fill="#D2B2FB" transform="translate(0,0)"/>
<path d="" fill="#D2B1FD" transform="translate(0,0)"/>
<path d="" fill="#D2B0FB" transform="translate(0,0)"/>
<path d="" fill="#D3B1FB" transform="translate(0,0)"/>
<path d="" fill="#D3B0FB" transform="translate(0,0)"/>
<path d="" fill="#D3B2FC" transform="translate(0,0)"/>
<path d="" fill="#D4B3FE" transform="translate(0,0)"/>
<path d="" fill="#D3B0FD" transform="translate(0,0)"/>
<path d="" fill="#D4B0FB" transform="translate(0,0)"/>
<path d="" fill="#D3B1FB" transform="translate(0,0)"/>
<path d="" fill="#D1AFFD" transform="translate(0,0)"/>
<path d="" fill="#D5B1FE" transform="translate(0,0)"/>
<path d="" fill="#D0AEFA" transform="translate(0,0)"/>
<path d="" fill="#CDAFF9" transform="translate(0,0)"/>
<path d="" fill="#D2B0FC" transform="translate(0,0)"/>
<path d="" fill="#D2B1FE" transform="translate(0,0)"/>
<path d="" fill="#D4B0FC" transform="translate(0,0)"/>
<path d="" fill="#D3AEFD" transform="translate(0,0)"/>
<path d="" fill="#D2B2FC" transform="translate(0,0)"/>
<path d="" fill="#D3B3FE" transform="translate(0,0)"/>
<path d="" fill="#D3B3FE" transform="translate(0,0)"/>
<path d="" fill="#D4B0FF" transform="translate(0,0)"/>
<path d="" fill="#D2B1FC" transform="translate(0,0)"/>
<path d="" fill="#CFADF7" transform="translate(0,0)"/>
<path d="" fill="#D1AFFA" transform="translate(0,0)"/>
<path d="" fill="#D1B1FC" transform="translate(0,0)"/>
<path d="" fill="#D1B1FD" transform="translate(0,0)"/>
<path d="" fill="#D2B0FD" transform="translate(0,0)"/>
<path d="" fill="#D3ADFA" transform="translate(0,0)"/>
<path d="" fill="#D3B1FC" transform="translate(0,0)"/>
<path d="" fill="#CFAFFA" transform="translate(0,0)"/>
<path d="" fill="#D1B1FE" transform="translate(0,0)"/>
<path d="" fill="#D3B1FD" transform="translate(0,0)"/>
<path d="" fill="#D0AFFD" transform="translate(0,0)"/>
<path d="" fill="#D0ADFA" transform="translate(0,0)"/>
<path d="" fill="#D4B2FD" transform="translate(0,0)"/>
<path d="" fill="#D3AFFD" transform="translate(0,0)"/>
<path d="" fill="#D0AFFC" transform="translate(0,0)"/>
<path d="" fill="#D3B1FC" transform="translate(0,0)"/>
<path d="" fill="#D1B2FD" transform="translate(0,0)"/>
<path d="" fill="#D1B1FB" transform="translate(0,0)"/>
<path d="" fill="#D1AEFC" transform="translate(0,0)"/>
<path d="" fill="#D1AFFC" transform="translate(0,0)"/>
<path d="" fill="#D2B0FD" transform="translate(0,0)"/>
<path d="" fill="#D2AFFD" transform="translate(0,0)"/>
<path d="" fill="#D3B0FC" transform="translate(0,0)"/>
<path d="" fill="#D2AFFB" transform="translate(0,0)"/>
<path d="" fill="#CFAFFB" transform="translate(0,0)"/>
<path d="" fill="#D4B3FD" transform="translate(0,0)"/>
<path d="" fill="#D1B1FB" transform="translate(0,0)"/>
<path d="" fill="#D1B1FD" transform="translate(0,0)"/>
<path d="" fill="#D0AFFB" transform="translate(0,0)"/>
<path d="" fill="#D1B0FD" transform="translate(0,0)"/>
<path d="" fill="#D3B1FC" transform="translate(0,0)"/>
<path d="" fill="#D3B1FB" transform="translate(0,0)"/>
<path d="" fill="#D4AFFD" transform="translate(0,0)"/>
<path d="" fill="#D3B0FD" transform="translate(0,0)"/>
<path d="" fill="#D1B1FB" transform="translate(0,0)"/>
<path d="" fill="#D3B2FA" transform="translate(0,0)"/>
<path d="" fill="#D1B0FE" transform="translate(0,0)"/>
<path d="" fill="#D3AEFB" transform="translate(0,0)"/>
<path d="" fill="#D3B0FC" transform="translate(0,0)"/>
<path d="" fill="#D1B0FC" transform="translate(0,0)"/>
<path d="" fill="#D3B0FB" transform="translate(0,0)"/>
<path d="" fill="#CDAEF8" transform="translate(0,0)"/>
<path d="" fill="#D4B1FB" transform="translate(0,0)"/>
<path d="" fill="#D4B0FB" transform="translate(0,0)"/>
<path d="" fill="#D4B0FD" transform="translate(0,0)"/>
<path d="" fill="#D4AEFD" transform="translate(0,0)"/>
<path d="" fill="#D6B2FD" transform="translate(0,0)"/>
<path d="" fill="#D3B2FD" transform="translate(0,0)"/>
<path d="" fill="#D3B1FD" transform="translate(0,0)"/>
<path d="" fill="#D2B1FC" transform="translate(0,0)"/>
<path d="" fill="#CFB0FB" transform="translate(0,0)"/>
<path d="" fill="#D5B0FA" transform="translate(0,0)"/>
<path d="" fill="#D3B1FC" transform="translate(0,0)"/>
<path d="" fill="#CEAEFB" transform="translate(0,0)"/>
<path d="" fill="#D4B1FF" transform="translate(0,0)"/>
<path d="" fill="#CFB3FC" transform="translate(0,0)"/>
<path d="" fill="#D3AFFE" transform="translate(0,0)"/>
<path d="" fill="#D4B3FD" transform="translate(0,0)"/>
<path d="" fill="#D1B0FC" transform="translate(0,0)"/>
<path d="" fill="#D1B0FD" transform="translate(0,0)"/>
<path d="" fill="#D0B1FD" transform="translate(0,0)"/>
<path d="" fill="#CFB1F8" transform="translate(0,0)"/>
<path d="" fill="#D0B3FA" transform="translate(0,0)"/>
<path d="" fill="#D2B3FD" transform="translate(0,0)"/>
<path d="" fill="#D1AFF9" transform="translate(0,0)"/>
<path d="" fill="#D2B2FC" transform="translate(0,0)"/>
<path d="" fill="#CFB1FA" transform="translate(0,0)"/>
<path d="" fill="#D1B0FB" transform="translate(0,0)"/>
<path d="" fill="#D4B1FD" transform="translate(0,0)"/>
<path d="" fill="#D1B1FC" transform="translate(0,0)"/>
<path d="" fill="#D3B1FD" transform="translate(0,0)"/>
<path d="" fill="#CFB0F9" transform="translate(0,0)"/>
<path d="" fill="#D1AEFC" transform="translate(0,0)"/>
<path d="" fill="#D2B1FE" transform="translate(0,0)"/>
<path d="" fill="#D2AEF9" transform="translate(0,0)"/>
<path d="" fill="#D1AEFA" transform="translate(0,0)"/>
<path d="" fill="#D1B0FD" transform="translate(0,0)"/>
<path d="" fill="#D1AEF8" transform="translate(0,0)"/>
<path d="" fill="#D2AFF9" transform="translate(0,0)"/>
<path d="" fill="#D2AEF9" transform="translate(0,0)"/>
<path d="" fill="#D3B0FE" transform="translate(0,0)"/>
<path d="" fill="#D1AFFA" transform="translate(0,0)"/>
<path d="" fill="#CAADF4" transform="translate(0,0)"/>
<path d="" fill="#D0B1F9" transform="translate(0,0)"/>
<path d="" fill="#C6AAF1" transform="translate(0,0)"/>
<path d="" fill="#D3B2FD" transform="translate(0,0)"/>
<path d="" fill="#D4B0FD" transform="translate(0,0)"/>
<path d="" fill="#D2B1FB" transform="translate(0,0)"/>
<path d="" fill="#D5AFFC" transform="translate(0,0)"/>
<path d="" fill="#D3B1FA" transform="translate(0,0)"/>
<path d="" fill="#D4AFFC" transform="translate(0,0)"/>
<path d="" fill="#D3AEFA" transform="translate(0,0)"/>
<path d="" fill="#D5AFFC" transform="translate(0,0)"/>
<path d="" fill="#D4AFFC" transform="translate(0,0)"/>
<path d="" fill="#D4AFFC" transform="translate(0,0)"/>
<path d="" fill="#D4B2FB" transform="translate(0,0)"/>
<path d="" fill="#D2B1FC" transform="translate(0,0)"/>
<path d="" fill="#D5B3FE" transform="translate(0,0)"/>
<path d="" fill="#D3B1FD" transform="translate(0,0)"/>
<path d="" fill="#C9B0F4" transform="translate(0,0)"/>
<path d="" fill="#D4B1FB" transform="translate(0,0)"/>
<path d="" fill="#D2B1FE" transform="translate(0,0)"/>
<path d="" fill="#D2B0F9" transform="translate(0,0)"/>
<path d="" fill="#CEAFF8" transform="translate(0,0)"/>
<path d="" fill="#CEADF5" transform="translate(0,0)"/>
<path d="" fill="#D1B3FD" transform="translate(0,0)"/>
<path d="" fill="#CEB0F6" transform="translate(0,0)"/>
<path d="" fill="#D4B2FF" transform="translate(0,0)"/>
<path d="" fill="#D4B0FC" transform="translate(0,0)"/>
<path d="" fill="#D2AFF8" transform="translate(0,0)"/>
<path d="" fill="#D1B2FD" transform="translate(0,0)"/>
<path d="" fill="#D2AFFA" transform="translate(0,0)"/>
<path d="" fill="#D1B2FB" transform="translate(0,0)"/>
<path d="" fill="#D1AFFA" transform="translate(0,0)"/>
<path d="" fill="#D2B1FD" transform="translate(0,0)"/>
<path d="" fill="#D3B4FF" transform="translate(0,0)"/>
<path d="" fill="#D3B0FF" transform="translate(0,0)"/>
<path d="" fill="#D2AFFC" transform="translate(0,0)"/>
<path d="" fill="#D3B0FC" transform="translate(0,0)"/>
<path d="" fill="#D3B1FB" transform="translate(0,0)"/>
<path d="" fill="#D3B1FC" transform="translate(0,0)"/>
<path d="" fill="#D1B1FB" transform="translate(0,0)"/>
<path d="" fill="#D1B1FC" transform="translate(0,0)"/>
<path d="" fill="#CFB2FC" transform="translate(0,0)"/>
<path d="" fill="#D1B1FD" transform="translate(0,0)"/>
<path d="" fill="#D1B2FC" transform="translate(0,0)"/>
<path d="" fill="#D3AEFB" transform="translate(0,0)"/>
<path d="" fill="#D2AFFD" transform="translate(0,0)"/>
<path d="" fill="#D1B0FB" transform="translate(0,0)"/>
<path d="" fill="#D0B2FD" transform="translate(0,0)"/>
<path d="" fill="#D3B1FD" transform="translate(0,0)"/>
<path d="" fill="#D4B3FC" transform="translate(0,0)"/>
<path d="" fill="#D3B1FB" transform="translate(0,0)"/>
<path d="" fill="#D2B0FC" transform="translate(0,0)"/>
<path d="" fill="#D3B0F9" transform="translate(0,0)"/>
<path d="" fill="#D1B1FC" transform="translate(0,0)"/>
<path d="" fill="#D4B1FF" transform="translate(0,0)"/>
<path d="" fill="#D4B1FE" transform="translate(0,0)"/>
<path d="" fill="#D3B3FE" transform="translate(0,0)"/>
<path d="" fill="#D3B1FD" transform="translate(0,0)"/>
<path d="" fill="#D3B0FC" transform="translate(0,0)"/>
<path d="" fill="#D1AFFB" transform="translate(0,0)"/>
<path d="" fill="#D3B2FE" transform="translate(0,0)"/>
<path d="" fill="#D1B0FC" transform="translate(0,0)"/>
<path d="" fill="#D2B2FB" transform="translate(0,0)"/>
<path d="" fill="#D3AFFE" transform="translate(0,0)"/>
<path d="" fill="#D2ADFC" transform="translate(0,0)"/>
<path d="" fill="#D2B0FD" transform="translate(0,0)"/>
<path d="" fill="#D0AFFA" transform="translate(0,0)"/>
<path d="" fill="#D0B1FC" transform="translate(0,0)"/>
<path d="" fill="#D3B1FD" transform="translate(0,0)"/>
<path d="" fill="#D3AFFC" transform="translate(0,0)"/>
<path d="" fill="#D1ADFC" transform="translate(0,0)"/>
<path d="" fill="#D3B0FD" transform="translate(0,0)"/>
<path d="" fill="#D0AEFC" transform="translate(0,0)"/>
<path d="" fill="#D2AEFC" transform="translate(0,0)"/>
<path d="" fill="#D2B0F9" transform="translate(0,0)"/>
<path d="" fill="#D2B1FB" transform="translate(0,0)"/>
<path d="" fill="#D3B0FD" transform="translate(0,0)"/>
<path d="" fill="#D3B2FE" transform="translate(0,0)"/>
<path d="" fill="#D2B2FE" transform="translate(0,0)"/>
<path d="" fill="#D3B0FD" transform="translate(0,0)"/>
<path d="" fill="#CFADF6" transform="translate(0,0)"/>
<path d="" fill="#D4AFFB" transform="translate(0,0)"/>
<path d="" fill="#D3B3FF" transform="translate(0,0)"/>
<path d="" fill="#CCABF5" transform="translate(0,0)"/>
<path d="" fill="#D2B1FC" transform="translate(0,0)"/>
<path d="" fill="#D2B0FB" transform="translate(0,0)"/>
<path d="" fill="#D2B0FC" transform="translate(0,0)"/>
<path d="" fill="#D3B2FC" transform="translate(0,0)"/>
<path d="" fill="#D3AFFA" transform="translate(0,0)"/>
<path d="" fill="#CFADF7" transform="translate(0,0)"/>
<path d="" fill="#D0B0FB" transform="translate(0,0)"/>
<path d="" fill="#D2B2FC" transform="translate(0,0)"/>
<path d="" fill="#D3B1FD" transform="translate(0,0)"/>
<path d="" fill="#D1B2FC" transform="translate(0,0)"/>
<path d="" fill="#D3AFFB" transform="translate(0,0)"/>
<path d="" fill="#D0B1FA" transform="translate(0,0)"/>
<path d="" fill="#D3B2FC" transform="translate(0,0)"/>
<path d="" fill="#D0AFFA" transform="translate(0,0)"/>
<path d="" fill="#D0B1FC" transform="translate(0,0)"/>
<path d="" fill="#CFB1F9" transform="translate(0,0)"/>
<path d="" fill="#D0AEF9" transform="translate(0,0)"/>
<path d="" fill="#D1B1F9" transform="translate(0,0)"/>
<path d="" fill="#D0AFFB" transform="translate(0,0)"/>
<path d="" fill="#D1B0FA" transform="translate(0,0)"/>
<path d="" fill="#D1B1F9" transform="translate(0,0)"/>
<path d="" fill="#D2B0FC" transform="translate(0,0)"/>
<path d="" fill="#D2B1FA" transform="translate(0,0)"/>
<path d="" fill="#D0AEF7" transform="translate(0,0)"/>
<path d="" fill="#D1B1FA" transform="translate(0,0)"/>
<path d="" fill="#D2AEFD" transform="translate(0,0)"/>
<path d="" fill="#D2B0FC" transform="translate(0,0)"/>
<path d="" fill="#CFADFA" transform="translate(0,0)"/>
<path d="" fill="#D1B0FB" transform="translate(0,0)"/>
<path d="" fill="#D1B1FE" transform="translate(0,0)"/>
<path d="" fill="#D1B1FD" transform="translate(0,0)"/>
<path d="" fill="#D1AFFB" transform="translate(0,0)"/>
<path d="" fill="#D0ACFA" transform="translate(0,0)"/>
<path d="" fill="#D1B0FD" transform="translate(0,0)"/>
<path d="" fill="#D0AEF9" transform="translate(0,0)"/>
<path d="" fill="#CEADF9" transform="translate(0,0)"/>
<path d="" fill="#CFAFF7" transform="translate(0,0)"/>
<path d="" fill="#D1B1FE" transform="translate(0,0)"/>
<path d="" fill="#CFAFF9" transform="translate(0,0)"/>
<path d="" fill="#D0B0FC" transform="translate(0,0)"/>
<path d="" fill="#D1B0FB" transform="translate(0,0)"/>
<path d="" fill="#CDACF6" transform="translate(0,0)"/>
<path d="" fill="#CFAEF8" transform="translate(0,0)"/>
<path d="" fill="#D0B1F8" transform="translate(0,0)"/>
<path d="" fill="#CFADF7" transform="translate(0,0)"/>
<path d="" fill="#CEACF7" transform="translate(0,0)"/>
<path d="" fill="#CEAEFA" transform="translate(0,0)"/>
<path d="" fill="#CEB1F8" transform="translate(0,0)"/>
<path d="" fill="#CBADF4" transform="translate(0,0)"/>
<path d="" fill="#D0B3F8" transform="translate(0,0)"/>
<path d="" fill="#C8ABEE" transform="translate(0,0)"/>
<path d="" fill="#C9AEEE" transform="translate(0,0)"/>
<path d="" fill="#C9ABF1" transform="translate(0,0)"/>
<path d="" fill="#CFB1F8" transform="translate(0,0)"/>
<path d="" fill="#C9ABF0" transform="translate(0,0)"/>
<path d="" fill="#D1AFF9" transform="translate(0,0)"/>
<path d="" fill="#D0AFF8" transform="translate(0,0)"/>
<path d="" fill="#D1B0FA" transform="translate(0,0)"/>
<path d="" fill="#D0AFFA" transform="translate(0,0)"/>
<path d="" fill="#CFAFFB" transform="translate(0,0)"/>
<path d="" fill="#CCADF9" transform="translate(0,0)"/>
<path d="" fill="#D0AFF8" transform="translate(0,0)"/>
<path d="" fill="#D0AFFA" transform="translate(0,0)"/>
<path d="" fill="#D2AEFA" transform="translate(0,0)"/>
<path d="" fill="#CEB0F8" transform="translate(0,0)"/>
<path d="" fill="#CCABF4" transform="translate(0,0)"/>
<path d="" fill="#CAADF1" transform="translate(0,0)"/>
<path d="" fill="#CAABF1" transform="translate(0,0)"/>
<path d="" fill="#C8AAF1" transform="translate(0,0)"/>
<path d="" fill="#C7A8F0" transform="translate(0,0)"/>
<path d="" fill="#C7AAF1" transform="translate(0,0)"/>
<path d="" fill="#C7A8F1" transform="translate(0,0)"/>
<path d="" fill="#C9A9F0" transform="translate(0,0)"/>
</svg>
